<svg width="614" height="510" viewBox="0 0 614 510" fill="none" xmlns="http://www.w3.org/2000/svg">
<path d="M613.9 239.7C613.9 239.9 613.9 240.2 613.9 240.4C610.4 245.7 605.2 249.5 601 254.1C600.4 254.7 599.8 255.3 599.2 255.9C594.3 259.8 590 264.3 585.6 268.8C585.4 269.1 585.1 269.3 584.9 269.5C580.2 274 575.7 278.7 571.1 283.2C570.5 283.8 569.9 284.4 569.3 285C564.6 289.9 559.1 294 554.5 299C550 303.4 545.6 307.9 541.1 312.3C540.5 312.9 539.9 313.5 539.3 314.1C534.8 318.8 530.1 323.2 525.2 327.5C519.7 333 514.2 338.5 508.7 344C488.6 363.3 469 383.1 448.9 402.3C439.1 412.1 429.2 421.9 419.1 431.3C418.7 431.7 418.4 432 418 432.4C407.8 442.3 398.1 452.9 387.4 462.3C383.8 465.9 380.2 469.6 376.5 473.1C375.6 474 374.5 475.8 372.9 473.7C372.2 471.8 372.5 469.7 372.5 467.8C372.5 427.4 372.5 386.9 372.5 346.5C372.5 338 372.5 338 364.1 338.1C361.6 338.1 359.1 337.6 356.7 338.4C355.3 338.7 353.9 338.8 352.5 338.7C343.1 338.3 333.8 339.3 324.5 339.8C321.1 340.4 317.6 339.9 314.2 340.7C313.4 340.8 312.6 340.8 311.7 340.8C310.3 340.8 309 340.7 307.7 341.2C306.8 341.4 305.8 341.5 304.8 341.5C303.1 341.5 301.4 341.5 299.8 342C299.3 342.1 298.7 342.2 298.1 342.2C296.7 342.2 295.2 342.1 293.8 342.6C293.4 342.7 293.1 342.8 292.7 342.9C290.9 343.2 289 342.9 287.2 343.6C285.5 344 283.7 343.8 282 344.4C278.6 344.9 275.2 345.5 271.8 346.1C265.2 346.7 258.9 348.4 252.4 349.6C248.6 350.2 244.9 351 241.2 352C235.4 353.4 229.6 354.6 223.9 356.3C218.6 357.6 213.4 359.1 208.2 360.7C203.7 362.1 199.2 363.7 194.7 365.2C189.9 366.6 185.3 368.7 180.5 370.4C177.9 371.2 175.4 372.2 173 373.4C170 374.6 167 376 164 377.2C159.3 379.4 154.4 381.3 149.8 383.8C146.3 385.4 142.8 387.2 139.4 389C137.6 390 135.8 391.1 133.9 392.1C129 394.5 124.6 397.5 119.9 400.2C118.1 401.1 116.3 402.2 114.6 403.4C111.1 405.5 107.7 407.9 104.2 410.1C100.4 412.8 96.6001 415.4 92.9001 418.1C91.0001 419.3 89.3001 420.7 87.6001 422C75.7001 431.1 64.4001 440.7 53.5001 451C50.7001 453.7 48.0001 456.5 45.2001 459.3C43.9001 460.6 42.5001 461.9 41.3001 463.2C36.0001 468.3 31.2001 473.8 26.5001 479.3C22.7001 483.5 19.1001 487.8 15.5001 492.1C14.8001 492.9 14.3001 493.8 13.7001 494.6C10.0001 498.9 6.6001 503.6 3.2001 508.1C2.3001 508.9 1.5001 509.7 0.200103 509.2C-0.499897 503.7 1.5001 498.6 2.2001 493.4C3.7001 488.4 4.5001 483.3 5.7001 478.2C6.8001 473.8 7.9001 469.4 9.0001 465C11.0001 459.3 12.1001 453.4 14.0001 447.8C14.1001 447.4 14.2001 447.1 14.4001 446.7C15.9001 442.8 16.9001 438.8 17.9001 434.8C20.0001 429.7 21.7001 424.5 23.4001 419.3C25.5001 414.1 27.3001 408.8 29.5001 403.6C31.5001 398.8 33.5001 394.1 35.4001 389.3C37.4001 384.8 39.5001 380.4 41.4001 375.9C42.8001 373.4 44.0001 370.9 45.2001 368.3C46.8001 365.3 48.3001 362.3 49.7001 359.3C52.7001 353.2 56.1001 347.3 59.4001 341.4C61.9001 337.1 64.5001 332.9 67.0001 328.7C69.2001 325.8 70.9001 322.5 72.9001 319.5C77.5001 312.7 82.1001 306 87.1001 299.4C88.4001 298.1 89.3001 296.4 90.3001 294.9C93.2001 291.8 95.4001 288.1 98.3001 285C100.5 282.2 102.8 279.5 105.1 276.8C107.4 274.3 109.4 271.6 111.9 269.3C114.5 266.2 117.2 263.1 120.1 260.4C122.2 258.4 124.2 256.4 126.2 254.3C129.2 251.4 132.2 248.3 135.2 245.4C137.8 243.7 139.8 241.5 141.9 239.4C144.7 237.3 147.3 234.8 150.1 232.6C152.9 229.9 156.1 227.6 159.1 225.1C161.1 223.5 163.2 222 165.2 220.4C170.5 216.2 176.2 212.5 181.6 208.5C185.8 205.7 190.1 203 194.3 200.3C198.1 198.1 201.7 195.8 205.5 193.6C206.8 192.7 208.2 192.1 209.6 191.3C214.5 188.4 219.6 186 224.5 183.1C227.1 181.9 229.6 180.6 232.1 179.3C234.9 178.2 237.7 177 240.4 175.5C244.9 173.5 249.4 171.4 254 169.5C259.2 167.6 264.3 165.3 269.6 163.4C275 161.1 280.6 159.4 286.2 157.4C290.2 156.1 294.2 154.7 298.3 153.6C305.2 151.5 312.3 149.7 319.2 147.7C323.4 146.7 327.7 145.6 332 144.7C335.8 144.2 339.4 142.9 343.2 142.2C349.5 141.2 355.7 139.9 362 138.7C365.2 138 368.7 138.2 371.8 136.7C373 135.5 372.9 134 372.9 132.5C372.9 101.9 373 71.4003 372.8 40.8003C372.7 28.6003 373 16.4003 372.9 4.10035C372.9 3.10035 372.9 2.10035 373.3 1.20035C374.9 -1.19965 376.1 0.800348 377 1.70035C380.7 5.20035 384.2 8.80035 387.7 12.3003C392.8 17.6003 398.2 22.8003 403.4 28.1003C404 28.7003 404.6 29.3003 405.2 29.9003C409.8 34.5003 414.5 39.1003 419.1 43.8003C419.7 44.4003 420.3 45.0003 420.9 45.6003C425 49.8003 429.2 53.9003 433.3 58.0003C433.9 58.6003 434.5 59.2003 435.1 59.8003C439.7 64.4003 444.4 69.0003 449 73.7003C449.6 74.3003 450.2 74.9004 450.8 75.5004C455.5 80.2004 460.2 84.9003 464.9 89.6003C469.8 94.6003 474.8 99.6004 479.8 104.5C484.2 109 488.7 113.4 493.1 117.9C493.7 118.5 494.3 119.1 494.9 119.7C498.8 123.6 502.7 127.5 506.6 131.4C507.7 132.5 508.7 133.6 509.9 134.7C518.8 143.6 527.8 152.6 536.7 161.5C542.4 167.3 548.2 173 553.9 178.7C559.1 184 564.4 189.2 569.7 194.4C579.6 204.4 589.6 214.3 599.6 224.3C603.4 228.2 607.3 232.1 611.2 235.9C612.1 237 613.1 238.3 613.9 239.7Z" fill="#FFD700"/>
</svg>
